<!DOCTYPE svg PUBLIC "-//W3C//DTD SVG 1.1//EN" "http://www.w3.org/Graphics/SVG/1.1/DTD/svg11.dtd">
<!-- Uploaded to: SVG Repo, www.svgrepo.com, Transformed by: SVG Repo Mixer Tools -->
<svg width="220px" height="220px" viewBox="-13.44 -13.44 218.88 218.88" xmlns="http://www.w3.org/2000/svg" xml:space="preserve" fill="none" stroke="#dd00fa">
<g id="SVGRepo_bgCarrier" stroke-width="0">
<rect x="-13.44" y="-13.44" width="218.88" height="218.88" rx="109.44" fill="#ac3e8f" strokewidth="0"/>
</g>
<g id="SVGRepo_tracerCarrier" stroke-linecap="round" stroke-linejoin="round" stroke="#CCCCCC" stroke-width="1.152"/>
<g id="SVGRepo_iconCarrier"> <g style="fill:none;stroke-width:4.608;stroke-dasharray:none"> <path fill="#ffffff" d="m4.955 18.904 6.492 23.921 6.957-23.924 8.105 24.052 6.52-24.044m26.467 17.419c0 2.064-.736 3.779-2.238 5.145-1.503 1.366-3.27 2.064-5.45 2.064h-10.93V18.333h10.134c2.092 0 3.859.698 5.302 2.006 1.474 1.337 2.181 2.994 2.181 4.971 0 2.21-.884 3.895-2.592 5.146 2.238 1.162 3.593 3.255 3.593 5.872z" style="fill:none;stroke:#ffffff;stroke-width:4.608;stroke-linecap:round;stroke-linejoin:round;stroke-dasharray:none;stroke-opacity:1" transform="translate(8.553 12.056) scale(2.71356)"/> <path d="M56.118 30.375H41.623" style="fill:none;fill-opacity:1;stroke:#ffffff;stroke-width:4.608;stroke-linecap:round;stroke-linejoin:round;stroke-miterlimit:5;stroke-dasharray:none;stroke-opacity:1" transform="translate(8.553 12.056) scale(2.71356)"/> </g> </g>
</svg>